# xmcd
#
# Track frame offsets: 
#        150
#        14978
#        25458
#        40309
#        61690
#        84028
#        105821
#        127519
#        143928
#        162650
#        177155
#
# Disc length: 2525 seconds
#
# Revision: 0
# Processed by: cddbd v1.5.2PL0 Copyright (c) Steve Scherf et al.
# Submitted via: ExactAudioCopyFreeDBPlugin 1.0
#
DISCID=8309db0b
DTITLE=Lillie Mae - Forever And Then Some
DYEAR=2017
DGENRE=Country
TTITLE0=Over The Hill And Through The Woods
TTITLE1=Honky Tonks And Taverns
TTITLE2=Wash Me Clean
TTITLE3=Loaner
TTITLE4=Honest And True
TTITLE5=These Daze
TTITLE6=Forever And Then Some
TTITLE7=Nearing Home
TTITLE8=To Go Wrong
TTITLE9=Some Fine Day
TTITLE10=Dance To The Beat Of My Own Drum
EXTD=
EXTT0=
EXTT1=
EXTT2=
EXTT3=
EXTT4=
EXTT5=
EXTT6=
EXTT7=
EXTT8=
EXTT9=
EXTT10=
PLAYORDER=
